<svg width="195" height="97" version="1.1" xmlns="http://www.w3.org/2000/svg">
 <g fill="#e96651" fill-rule="evenodd" stroke="#fff" stroke-dasharray="1, 4" stroke-linecap="round" stroke-width="2">
  <path d="M 6,1 C 8.761,1 11,3.238 11,5.999 11,8.761 8.761,11 6,11 3.238,11 1,8.761 1,5.999 1,3.238 3.238,1 6,1 Z"/>
  <path d="m189 21.999c2.761 0 5 2.239 5 5.001 0 2.761-2.239 5-5 5s-5-2.239-5-5c0-2.762 2.239-5.001 5-5.001z"/>
  <path d="m161 85.999c2.761 0 5 2.239 5 5.001 0 2.761-2.239 5-5 5s-5-2.239-5-5c0-2.762 2.239-5.001 5-5.001z"/>
 </g>
</svg>
