<svg width="66" height="33" version="1.1" viewBox="0 0 66 33" xmlns="http://www.w3.org/2000/svg">
 <path d="m8.1591 5.1167v5h-5v2h5v5h2v-5h5v-2h-5v-5zm31.459 1.0508-1.4141 1.4141 3.5352 3.5352-3.5352 3.5352 1.4141 1.4141 3.5352-3.5352 3.5352 3.5352 1.4141-1.4141-3.5352-3.5352 3.5352-3.5352-1.4141-1.4141-3.5352 3.5352zm-12.508 16.104c-2.9535 0-5.3633 2.4117-5.3633 5.3652s2.4098 5.3633 5.3633 5.3633 5.3652-2.4098 5.3652-5.3633-2.4117-5.3652-5.3652-5.3652zm33.518 0c-2.9535 0-5.3633 2.4117-5.3633 5.3652s2.4098 5.3633 5.3633 5.3633 5.3633-2.4098 5.3633-5.3633-2.4098-5.3652-5.3633-5.3652zm-33.518 1.5c2.1428 0 3.8652 1.7224 3.8652 3.8652s-1.7224 3.8633-3.8652 3.8633-3.8633-1.7204-3.8633-3.8633 1.7204-3.8652 3.8633-3.8652zm33.518 0c2.1428 0 3.8633 1.7224 3.8633 3.8652s-1.7204 3.8633-3.8633 3.8633c-2.1428 0-3.8633-1.7204-3.8633-3.8633s1.7204-3.8652 3.8633-3.8652z" fill="#e9e9e9" fill-opacity=".4"/>
</svg>
